<svg xmlns="http://www.w3.org/2000/svg" viewBox="0 0 64 64">
  <!-- Person Body -->
  <path d="M16 62v-8c0-8 6-14 16-14s16 6 16 14v8" fill="#FFD700" stroke="#000" stroke-width="3"/>
  
  <!-- Head -->
  <circle cx="32" cy="28" r="14" fill="#F5D0C5" stroke="#000" stroke-width="3"/>
  
  <!-- Hair -->
  <path d="M18 26c0-10 6-16 14-16s14 6 14 16" fill="#8B4513" stroke="#000" stroke-width="3"/>
  
  <!-- Glasses -->
  <g fill="#87CEEB" stroke="#000" stroke-width="2">
    <rect x="22" y="24" width="9" height="7" rx="2"/>
    <rect x="33" y="24" width="9" height="7" rx="2"/>
    <line x1="31" y1="27.5" x2="33" y2="27.5"/>
  </g>
  
  <!-- Smile -->
  <path d="M28 36q4 3 8 0" fill="none" stroke="#000" stroke-width="2" stroke-linecap="round"/>

  <!-- Monitor/Laptop covering bottom of person -->
  <rect x="10" y="44" width="44" height="18" rx="2" fill="#D3D3D3" stroke="#000" stroke-width="3"/>
  <rect x="14" y="48" width="36" height="10" fill="#333"/>
  <!-- Code lines on screen -->
  <path d="M18 53h6M28 53h18" stroke="#0F0" stroke-width="2" stroke-linecap="round"/>
</svg>